inDegrees=no
num_controls=7
num_derivatives=13
num_iterations=107
num_multipliers=7
num_parameters=0
num_slacks=7
num_states=26
objective=0.497024
objective_accelerations=0.032183
objective_balance=0.003297
objective_effort=0.035038
objective_height=0.421014
objective_ligament=0.005493
solver_duration=1222.008017
status=Solve_Succeeded
success=true
DataType=double
version=3
OpenSimVersion=4.5
endheader
time	/jointset/ground_pelvis/pelvis_tilt/value	/jointset/ground_pelvis/pelvis_tx/value	/jointset/ground_pelvis/pelvis_ty/value	/jointset/hip_r/hip_flexion_r/value	/jointset/hip_r/hip_adduction_r/value	/jointset/hip_r/hip_rotation_r/value	/jointset/back/lumbar_extension/value	/jointset/patellofemoral_r/patellar_flexion_r/value	/jointset/knee_r/knee_flexion_r/value	/jointset/knee_r/knee_adduction_r/value	/jointset/knee_r/knee_rotation_r/value	/jointset/ankle_r/ankle_angle_r/value	/jointset/subtalar_r/subtalar_angle_r/value	/jointset/ground_pelvis/pelvis_tilt/speed	/jointset/ground_pelvis/pelvis_tx/speed	/jointset/ground_pelvis/pelvis_ty/speed	/jointset/hip_r/hip_flexion_r/speed	/jointset/hip_r/hip_adduction_r/speed	/jointset/hip_r/hip_rotation_r/speed	/jointset/back/lumbar_extension/speed	/jointset/patellofemoral_r/patellar_flexion_r/speed	/jointset/knee_r/knee_flexion_r/speed	/jointset/knee_r/knee_adduction_r/speed	/jointset/knee_r/knee_rotation_r/speed	/jointset/ankle_r/ankle_angle_r/speed	/jointset/subtalar_r/subtalar_angle_r/speed	/forceset/tau_hip_flexion_r	/forceset/tau_hip_adduction_r	/forceset/tau_hip_rotation_r	/forceset/tau_knee_flexion_r	/forceset/tau_ankle_angle_r	/forceset/tau_subtalar_angle_r	/forceset/tau_lumbar_extension	lambda_cid13_p0	lambda_cid14_p0	lambda_cid14_p1	lambda_cid14_p2	lambda_cid14_p3	lambda_cid14_p4	lambda_cid14_p5	/jointset/ground_pelvis/pelvis_tilt/accel	/jointset/ground_pelvis/pelvis_tx/accel	/jointset/ground_pelvis/pelvis_ty/accel	/jointset/hip_r/hip_flexion_r/accel	/jointset/hip_r/hip_adduction_r/accel	/jointset/hip_r/hip_rotation_r/accel	/jointset/back/lumbar_extension/accel	/jointset/patellofemoral_r/patellar_flexion_r/accel	/jointset/knee_r/knee_flexion_r/accel	/jointset/knee_r/knee_adduction_r/accel	/jointset/knee_r/knee_rotation_r/accel	/jointset/ankle_r/ankle_angle_r/accel	/jointset/subtalar_r/subtalar_angle_r/accel	gamma_cid13_p0	gamma_cid14_p0	gamma_cid14_p1	gamma_cid14_p2	gamma_cid14_p3	gamma_cid14_p4	gamma_cid14_p5
1.5	-0.1053229755324545	0.06191919968722238	0.8715757110128493	0.6614965248633573	-0.2276453603587061	-0.143724558842959	-0.2794005436831274	0.6435772986896846	0.6435772986896958	0.04233810994003569	0.1743783220710719	0.2573821222721417	0.05830618740594027	0.2269784635270524	0.1171742191834838	0.3223195863928621	-1.434958108300869	0.01823981459058614	-0.2809453658227392	0.703373873238983	-1.73878142809117	-1.738781428091244	0.2778657873462553	0.0003464028807206253	-0.6206249481632877	-0.1536387032990256	-0.06296844347163573	-0.0167715924752378	0.006613887904390523	-0.3238183000772893	0.05734776535651111	-0.01258813422535908	0.1207655521682437	-34.42302016292868	-23.37211589732492	-5.563787269632551	-3.21686542501264	3.148508478367555	-662.4242614081197	57.13579852618221	0.0465561833317454	0.2635799221479082	-0.4467173707767737	-0.7066735105656057	-0.02236621320497854	-0.5459884425841497	1.185048333185404	-0.9935533598561337	-0.9935533598561301	0.3901883191692083	-0.005289728346903285	-0.4542781661650386	-0.03438948905239985	1.182570156145899e-07	1.541710806774802e-07	-6.103086050407661e-07	1.246240287236271e-06	-1.770175208776628e-08	1.913840955166435e-07	-9.197724715169348e-07
1.51	-0.103051232843868	0.0631039249259467	0.8747758278088797	0.6471136479827095	-0.2274648358530344	-0.1465604521961975	-0.2723086232833803	0.6261424134200007	0.6261424134199988	0.04513799143596266	0.1743818147400156	0.2511538233711654	0.05676726192972807	0.2273410124753697	0.1197487620493852	0.3176336332071031	-1.441403035536087	0.01786504417143696	-0.286222207207026	0.7148886152858465	-1.747923138090773	-1.74792313809082	0.282086251869187	0.0003543299933197436	-0.6249397314339564	-0.1541180644365491	-0.05743072124878894	-0.01877297676893155	0.005965085166015607	-0.3206767579805344	0.06136150833503937	-0.0132890618402098	0.1155733989663487	-35.31203805500257	-21.95131646303897	-5.503941637092873	-3.358319743396615	2.667420824335366	-659.2535968246144	57.32737165586636	0.02675983191715944	0.2510806168702933	-0.4900143971419786	-0.5812489418750845	-0.04489403605305799	-0.5166588928358693	1.116448426562863	-0.833632679187117	-0.8336326791830261	0.4343045711712766	0.004386269696620244	-0.4057980587729798	-0.05042829023323542	1.260810077418081e-07	1.563610836611053e-07	-7.071598880791951e-07	1.269566499717874e-06	-8.907738481331712e-09	1.998301911781581e-07	-9.955510233933631e-07
1.52	-0.1007767335495373	0.06431373342294142	0.8779269890521195	0.63267275250733	-0.2272880313675131	-0.1494487393445738	-0.2651052032059403	0.6086242804784848	0.6086242804784744	0.0479793433875793	0.1743854971478113	0.244885232707231	0.0552243990693143	0.2275297846771233	0.1221908708375686	0.3125284758346836	-1.446561827246315	0.01749581056096172	-0.2914241248507087	0.7256738087777713	-1.755430962457363	-1.755430962457383	0.2861598784847654	0.0003843506512507176	-0.6286833007548309	-0.1544261801393086	-0.05189299902594149	-0.0207743610626244	0.005316282427632312	-0.3175352158837791	0.06537525131356911	-0.01398998945505838	0.1103812457644543	-36.16730471078277	-20.53906034736486	-5.443042105477115	-3.502855382803805	2.181307586339891	-656.2238521690283	57.59216035084662	0.01180083401884195	0.2370931066044396	-0.5305582081088677	-0.4494464055674626	-0.02125885147020317	-0.5310036944633238	1.039138622197626	-0.6667762332533893	-0.6667762332533957	0.36082073769856	-0.0008710192805352164	-0.3400353762060332	-0.0001404020995707765	1.355789459409502e-07	1.572828309498394e-07	-8.282742770279942e-07	1.286491326390652e-06	3.157949498504004e-09	2.056936080338429e-07	-1.078027926830337e-06
1.53	-0.09850126983741406	0.06554725192268153	0.881025062890463	0.6181867757204216	-0.2271149687733058	-0.1523888067903392	-0.2577977222108284	0.5910392647638678	0.5910392647638656	0.05086076961790106	0.1743897858652888	0.2385820247350982	0.05367919899271312	0.2275303428659528	0.1244854611010955	0.3070225333428357	-1.450410128897702	0.01711526382129525	-0.2965607407716093	0.7356832005025278	-1.761294985377573	-1.761294985377557	0.2901103482761502	0.0004662180796735924	-0.6318643672022507	-0.1545896122830472	-0.04617826169625868	-0.02294094433670658	0.004683157368833569	-0.3146403293004669	0.069664664751064	-0.01484791011196549	0.1050592682221201	-36.98428606007714	-19.0568595046347	-5.447630846162415	-3.626037700805279	1.699872556743292	-653.3329112372908	57.79708772280203	-0.01069408197348062	0.221542189234098	-0.5701339468159906	-0.3189936112694747	-0.04655205669324604	-0.5004671906518425	0.9609609861036069	-0.5046666367672485	-0.504666636762004	0.4098374836096629	0.01186459846788875	-0.2930314077713853	-0.02082340160603474	1.468554518415111e-07	1.568570565627518e-07	-9.751682160065614e-07	1.296614680641554e-06	1.86997915000784e-08	2.088129286583335e-07	-1.16762182880039e-06
1.54	-0.09622677602206627	0.06680289636565796	0.8840661729684693	0.6036690216037255	-0.2269457315407921	-0.155379335725262	-0.250394322990772	0.5734039185569799	0.5734039185569846	0.05378123602288821	0.1743947230519541	0.2322498282727385	0.05213308883845545	0.2273358053232628	0.1266160594848299	0.301135723767249	-1.452917293202899	0.01673073822249446	-0.3015164226824448	0.744857453766862	-1.765497060912283	-1.765497060912233	0.2939679134175848	0.0005140444906647907	-0.6344809988001261	-0.154608195670587	-0.04046352436657883	-0.02510752761078936	0.004050032309967185	-0.3117454427171534	0.07395407818855999	-0.01570583076887193	0.09973729067978387	-37.75847470469099	-17.58372939857107	-5.450658042385217	-3.753067642980106	1.213712770784495	-650.5941743189881	58.08006996936179	-0.02721831228520992	0.204294730646073	-0.6067316248566094	-0.18121893632942	-0.02205462329707496	-0.4948168924503312	0.8721109301130452	-0.3343867561536478	-0.3343867561536383	0.3422398077085328	-0.007679222766873732	-0.2271484062970013	0.02882934914020722	1.570320246048027e-07	1.555819627882338e-07	-1.108397921304057e-06	1.298966426313526e-06	3.327925337631275e-08	2.097343010157884e-07	-1.244298351035067e-06
1.55	-0.0939552217605325	0.06807902428792945	0.8870465840569924	0.5891328958210232	-0.2267803821734384	-0.1584187944144199	-0.242903310492836	0.5557349017199008	0.5557349017199406	0.05673969311268632	0.1744002190995508	0.225894337982522	0.05058750819537682	0.2269426050201758	0.1285816789079601	0.2948906300464467	-1.454084942551116	0.01633908420434668	-0.3063453754425731	0.7532074105225766	-1.768024501838805	-1.768024501838849	0.2977023607121367	0.0005794574566687536	-0.6365168470291002	-0.1544816677956608	-0.03476907969182533	-0.02743088898835811	0.003424095890596369	-0.3089427103939209	0.07836870537601462	-0.01667154448758569	0.09447474755457376	-38.48541311589264	-16.08853141752399	-5.501761685974905	-3.866577078640947	0.7130693803460687	-648.0705616925633	58.32562007318246	-0.05022259101324364	0.1885294860329843	-0.6417363836714464	-0.05108223313811563	-0.04764049494049386	-0.4722011368310091	0.7957927534311435	-0.1696862394913365	-0.1696862395054134	0.3857740929440291	0.01301918976266836	-0.1767441772258641	0.008453193418230566	1.659412831012406e-07	1.533283053716767e-07	-1.225884053012494e-06	1.292363927318471e-06	4.674988597769883e-08	2.081232547177459e-07	-1.306091805313771e-06
